#!OML:ASF F:\VICON\USERDATA\INSTALL\Justin_Nancy\Justin_Nancy.ASF
:FULLY-SPECIFIED
:DEGREES
66
root -8.63818 17.3576 -22.4299 2.46203 -5.55815 -4.04089
lowerback 6.37933 1.31554 3.22014
upperback 0.00832148 2.07546 2.36472
thorax -3.54401 0.993773 0.443206
lowerneck -17.2489 -3.59022 -9.12263
upperneck 19.2272 -3.66583 5.19509
head 9.16226 -1.82461 2.81833
rclavicle -1.29459e-014 -3.57812e-015
rhumerus -20.8411 -4.52979 -82.62
rradius 37.4524
rwrist 2.12212
rhand -14.301 9.99864
rfingers 7.12502
rthumb 11.8388 -19.6467
lclavicle -1.29459e-014 -3.57812e-015
lhumerus -33.8798 18.2433 80.6428
lradius 21.3719
lwrist -13.356
lhand -17.3571 21.3804
lfingers 7.12502
lthumb 8.89072 51.1731
rfemur 8.20178 2.46474 30.6566
rtibia 13.7374
rfoot -14.0872 -6.64622
rtoes -3.67208
lfemur -30.1551 -4.48702 -13.8139
ltibia 19.9236
lfoot -8.72173 6.78959
ltoes -12.9944
67
root -8.62714 17.3541 -22.2745 2.50128 -5.53099 -4.0396
lowerback 6.4512 1.29039 3.21521
upperback -0.0593321 2.05009 2.41862
thorax -3.65719 0.979881 0.501425
lowerneck -17.5573 -3.57772 -9.30928
upperneck 19.5475 -3.60276 5.31118
head 9.33075 -1.7959 2.89981
rclavicle 9.86469e-015 -3.97569e-015
rhumerus -20.7213 -4.66163 -82.5298
rradius 37.3115
rwrist 2.28163
rhand -14.5472 10.4177
rfingers 7.12502
rthumb 11.6014 -19.2412
lclavicle 9.86469e-015 -3.97569e-015
lhumerus -33.9101 18.6104 80.5974
lradius 20.9604
lwrist -13.6923
lhand -17.0591 23.1245
lfingers 7.12502
lthumb 9.17834 52.9047
rfemur 8.6874 2.5963 30.6067
rtibia 13.7856
rfoot -13.8685 -6.75852
rtoes -4.67179
lfemur -30.0716 -3.755 -14.3442
ltibia 20.3028
lfoot -7.57887 5.65533
ltoes -11.5689
68
root -8.61511 17.3516 -22.12 2.40717 -5.36996 -3.82339
lowerback 6.47452 1.16273 2.93024
upperback -0.0498704 1.86302 2.51059
thorax -3.67497 0.893009 0.772856
lowerneck -17.5627 -3.54296 -9.47146
upperneck 19.5493 -3.4847 5.20772
head 9.32496 -1.7645 2.90628
rclavicle 1.3418e-015 3.61788e-014
rhumerus -20.5476 -4.48394 -82.4273
rradius 37.1501
rwrist 2.49698
rhand -14.4819 10.4049
rfingers 7.12502
rthumb 11.6644 -19.2504
lclavicle 1.3418e-015 3.61788e-014
lhumerus -34.0556 19.3745 80.5375
lradius 20.7048
lwrist -14.3243
lhand -17.6728 22.8219
lfingers 7.12502
lthumb 8.58613 52.6273
rfemur 9.2693 2.54071 30.3251
rtibia 13.9093
rfoot -13.6682 -6.90518
rtoes -6.25767
lfemur -29.9027 -3.1816 -15.1388
ltibia 20.9301
lfoot -6.60121 4.61566
ltoes -9.82996
69
root -8.60239 17.3459 -21.9605 2.28505 -5.45774 -3.80631
lowerback 6.4129 1.15034 2.86265
upperback 0.0120947 1.83996 2.61959
thorax -3.58205 0.884974 0.927424
lowerneck -17.4649 -3.55293 -9.59711
upperneck 19.4408 -3.45138 5.1241
head 9.26836 -1.76744 2.90145
rclavicle 4.24405e-014 6.0033e-014
rhumerus -20.6417 -4.40165 -82.3162
rradius 37.3234
rwrist 2.65975
rhand -14.1875 10.7243
rfingers 7.12502
rthumb 11.9483 -18.9147
lclavicle 4.24405e-014 6.0033e-014
lhumerus -34.2124 19.8401 80.5317
lradius 20.5019
lwrist -14.6625
lhand -17.5722 23.3177
lfingers 7.12502
lthumb 8.68316 53.1191
rfemur 9.76466 2.7169 30.2243
rtibia 14.3865
rfoot -13.7599 -6.79217
rtoes -6.78879
lfemur -29.5935 -2.99495 -15.495
ltibia 21.6203
lfoot -6.00366 4.34496
ltoes -9.86056
70
root -8.59339 17.3328 -21.794 2.08269 -5.88952 -3.91696
lowerback 6.4427 1.28734 2.85394
upperback 0.0822815 2.02334 2.70757
thorax -3.52901 0.977669 1.00628
lowerneck -17.5424 -3.4867 -9.56193
upperneck 19.5684 -3.36255 5.11566
head 9.31864 -1.72511 2.90583
rclavicle -2.44505e-014 5.1684e-015
rhumerus -20.9783 -4.5318 -82.2325
rradius 37.6323
rwrist 2.68578
rhand -13.884 11.203
rfingers 7.12502
rthumb 12.2409 -18.4188
lclavicle -2.44505e-014 5.1684e-015
lhumerus -34.3924 20.199 80.4178
lradius 20.2499
lwrist -14.8853
lhand -16.032 24.9063
lfingers 7.12502
lthumb 10.1693 54.6405
rfemur 10.1374 3.09072 30.2733
rtibia 15.3002
rfoot -13.4978 -6.7557
rtoes -6.70088
lfemur -29.0118 -2.87747 -15.5746
ltibia 22.1941
lfoot -5.88078 4.55627
ltoes -11.021
71
root -8.5874 17.3287 -21.6329 1.86379 -6.10857 -3.99639
lowerback 6.39569 1.41422 2.95721
upperback 0.264575 2.18765 2.65034
thorax -3.30726 1.06011 0.877683
lowerneck -17.4559 -3.54301 -9.38204
upperneck 19.2617 -3.50646 5.18156
head 9.20488 -1.76851 2.87671
rclavicle -1.44119e-015 -1.47101e-014
rhumerus -21.0783 -5.15637 -82.2867
rradius 37.7748
rwrist 2.7016
rhand -13.861 11.1723
rfingers 7.12502
rthumb 12.2632 -18.4481
lclavicle -1.44119e-015 -1.47101e-014
lhumerus -34.1401 20.4513 80.216
lradius 19.8389
lwrist -15.3025
lhand -15.9941 24.4242
lfingers 7.12502
lthumb 10.2058 54.1566
rfemur 10.314 3.32545 30.3453
rtibia 16.4131
rfoot -13.1369 -6.83296
rtoes -6.31475
lfemur -28.3324 -2.54903 -15.8163
ltibia 22.6752
lfoot -6.01081 4.23572
ltoes -10.8953
72
root -8.57176 17.3353 -21.4651 1.76291 -6.28213 -4.01562
lowerback 6.35019 1.51641 3.0839
upperback 0.284454 2.32695 2.57141
thorax -3.2521 1.1275 0.714496
lowerneck -17.3241 -3.6588 -9.17968
upperneck 19.2175 -3.71596 5.09807
head 9.17643 -1.8617 2.78638
rclavicle -2.03754e-015 2.50469e-014
rhumerus -21.2777 -5.76366 -82.3228
rradius 37.7598
rwrist 2.64681
rhand -14.1041 10.9604
rfingers 7.12502
rthumb 12.0287 -18.674
lclavicle -2.03754e-015 2.50469e-014
lhumerus -34.247 20.8044 79.8637
lradius 19.5587
lwrist -16.1478
lhand -17.2749 22.5485
lfingers 7.12502
lthumb 8.9701 52.3378
rfemur 10.275 3.46517 30.2376
rtibia 17.6131
rfoot -13.2576 -6.30278
rtoes -7.6406
lfemur -27.7608 -2.6055 -16.0239
ltibia 23.052
lfoot -5.71928 3.82748
ltoes -8.99619
